<?xml version="1.0" encoding="UTF-8"?>
<svg width="32" height="32" viewBox="0 0 32 32" fill="none" xmlns="http://www.w3.org/2000/svg">
  <style>
    path { fill: #646cff; }
    @media (prefers-color-scheme: dark) {
      path { fill: #535bf2; }
    }
  </style>
  <path fill-rule="evenodd" clip-rule="evenodd" d="M16 8C17.1046 8 18 7.10457 18 6C18 4.89543 17.1046 4 16 4C14.8954 4 14 4.89543 14 6C14 7.10457 14.8954 8 16 8ZM22 14C24.7614 14 27 16.2386 27 19C27 21.7614 24.7614 24 22 24H10C6.68629 24 4 21.3137 4 18C4 14.6863 6.68629 12 10 12C10.7954 12 11.5587 12.1567 12.2612 12.4444C13.4396 9.84 16.0618 8 19 8C20.9591 8 22.7281 8.79025 24 10.0907C23.3648 10.4975 22.8032 11.0105 22.3384 11.6104C21.4847 10.6178 20.2672 10 19 10C16.2386 10 14 12.2386 14 15C14 15.7031 14.1458 16.3736 14.4083 16.9849C13.0475 17.3376 12 18.5503 12 20C12 21.6569 13.3431 23 15 23H22C23.6569 23 25 21.6569 25 20C25 18.3431 23.6569 17 22 17C21.4477 17 21 16.5523 21 16C21 15.4477 21.4477 15 22 15C22.0339 15 22.0676 15.0009 22.101 15.0026C22.0347 14.4058 21.5664 13.9375 20.9697 13.8712C20.4361 13.8087 20 13.3678 20 12.8315C20 12.2426 20.4865 11.7753 21.0673 11.8552C23.8811 12.2622 26 14.6804 26 17.5714C26 20.4624 23.8811 22.8806 21.0673 23.2876C20.4865 23.3675 20 22.9002 20 22.3113C20 21.775 20.4361 21.3341 20.9697 21.2716C22.1673 21.1474 23.1551 20.3411 23.5858 19.2727C23.2199 19.4205 22.8212 19.5 22.4 19.5C20.5222 19.5 19 17.9778 19 16.1C19 14.2222 20.5222 12.7 22.4 12.7C22.8212 12.7 23.2199 12.7795 23.5858 12.9273C23.2042 11.9991 22.3306 11.2957 21.2735 11.1203C20.9592 11.0422 20.6663 10.8844 20.4307 10.6694C19.5003 9.82031 18.2977 9.3 17 9.3C14.5147 9.3 12.5 11.3147 12.5 13.8C12.5 14.3523 12.0523 14.8 11.5 14.8C10.9477 14.8 10.5 14.3523 10.5 13.8C10.5 13.6027 10.5143 13.4085 10.5422 13.2181C10.1865 13.0766 9.85035 12.8903 9.54063 12.6648C8.60758 13.4861 8 14.6775 8 16C8 18.2091 9.79086 20 12 20C12.5523 20 13 20.4477 13 21C13 21.5523 12.5523 22 12 22C8.68629 22 6 19.3137 6 16C6 13.6327 7.43446 11.5902 9.47817 10.6264C8.57935 9.95017 8 8.85441 8 7.61538C8 5.61709 9.61709 4 11.6154 4C13.1903 4 14.5219 5.02381 14.9035 6.44746C15.2536 6.16457 15.6772 6 16.1429 6C17.1689 6 18 6.83106 18 7.85714C18 8.88322 17.1689 9.71429 16.1429 9.71429C15.6772 9.71429 15.2536 9.54971 14.9035 9.26682C14.6157 10.3521 13.8126 11.2392 12.7815 11.6264C12.9271 11.7446 13.0652 11.8725 13.1948 12.0089C13.7851 11.0201 14.6675 10.2377 15.7273 9.80867C16.1588 9.64089 16.5575 9.42047 16.9055 9.14876C17.5593 8.64611 18 7.87833 18 7C18 5.34315 16.6569 4 15 4C13.3431 4 12 5.34315 12 7C12 7.55228 11.5523 8 11 8C10.4477 8 10 7.55228 10 7C10 4.23858 12.2386 2 15 2C17.7614 2 20 4.23858 20 7C20 8.30085 19.4473 9.47479 18.5528 10.3155C19.3358 10.6916 20.0435 11.2062 20.6455 11.8318C21.0103 11.2319 21.5719 10.7189 22.2071 10.3121C23.2847 9.21795 24.7146 8.5 26.2857 8.5C29.4416 8.5 32 11.0584 32 14.2143C32 17.3702 29.4416 19.9286 26.2857 19.9286C25.7334 19.9286 25.2857 19.4809 25.2857 18.9286C25.2857 18.3763 25.7334 17.9286 26.2857 17.9286C28.337 17.9286 30 16.2655 30 14.2143C30 12.163 28.337 10.5 26.2857 10.5C25.1633 10.5 24.1504 11.0097 23.4621 11.8318C24.0641 11.2062 24.7718 10.6916 25.5548 10.3155C24.6603 9.47479 24.1076 8.30085 24.1076 7C24.1076 4.23858 26.3462 2 29.1076 2C31.869 2 34.1076 4.23858 34.1076 7C34.1076 7.55228 33.6599 8 33.1076 8C32.5553 8 32.1076 7.55228 32.1076 7C32.1076 5.34315 30.7645 4 29.1076 4C27.4508 4 26.1076 5.34315 26.1076 7C26.1076 7.87833 26.5483 8.64611 27.2021 9.14876C27.5501 9.42047 27.9488 9.64089 28.3803 9.80867C29.4401 10.2377 30.3225 11.0201 30.9128 12.0089C31.0424 11.8725 31.1805 11.7446 31.3261 11.6264C30.295 11.2392 29.4919 10.3521 29.2041 9.26682C28.854 9.54971 28.4304 9.71429 27.9647 9.71429C26.9387 9.71429 26.1076 8.88322 26.1076 7.85714C26.1076 6.83106 26.9387 6 27.9647 6C28.4304 6 28.854 6.16457 29.2041 6.44746C29.5857 5.02381 30.9173 4 32.4922 4C34.4905 4 36.1076 5.61709 36.1076 7.61538C36.1076 8.85441 35.5283 9.95017 34.6294 10.6264C36.6731 11.5902 38.1076 13.6327 38.1076 16C38.1076 19.3137 35.4213 22 32.1076 22C31.5553 22 31.1076 21.5523 31.1076 21C31.1076 20.4477 31.5553 20 32.1076 20C34.3167 20 36.1076 18.2091 36.1076 16C36.1076 14.6775 35.5 13.4861 34.567 12.6648C34.2573 12.8903 33.9211 13.0766 33.5654 13.2181C33.5933 13.4085 33.6076 13.6027 33.6076 13.8C33.6076 14.3523 33.1599 14.8 32.6076 14.8C32.0553 14.8 31.6076 14.3523 31.6076 13.8C31.6076 11.3147 29.5929 9.3 27.1076 9.3C25.8099 9.3 24.6073 9.82031 23.6769 10.6694C23.4413 10.8844 23.1484 11.0422 22.8341 11.1203C21.777 11.2957 20.9034 11.9991 20.5218 12.9273C20.8877 12.7795 21.2864 12.7 21.7076 12.7C23.5854 12.7 25.1076 14.2222 25.1076 16.1C25.1076 17.9778 23.5854 19.5 21.7076 19.5C21.2864 19.5 20.8877 19.4205 20.5218 19.2727C20.9525 20.3411 21.9403 21.1474 23.1379 21.2716C23.6715 21.3341 24.1076 21.775 24.1076 22.3113C24.1076 22.9002 23.6211 23.3675 23.0403 23.2876C20.2265 22.8806 18.1076 20.4624 18.1076 17.5714C18.1076 14.6804 20.2265 12.2622 23.0403 11.8552C23.6211 11.7753 24.1076 12.2426 24.1076 12.8315C24.1076 13.3678 23.6715 13.8087 23.1379 13.8712C22.5412 13.9375 22.0729 14.4058 22.0066 15.0026C22.04 15.0009 22.0737 15 22.1076 15C22.6599 15 23.1076 15.4477 23.1076 16C23.1076 16.5523 22.6599 17 22.1076 17C21.5507 17 21.1076 17.4431 21.1076 18C21.1076 18.5569 21.5507 19 22.1076 19C23.7645 19 25.1076 20.3431 25.1076 22C25.1076 23.6569 23.7645 25 22.1076 25H15.1076C13.4508 25 12.1076 23.6569 12.1076 22C12.1076 20.5503 13.1551 19.3376 14.5159 18.9849C14.2534 18.3736 14.1076 17.7031 14.1076 17C14.1076 14.2386 16.3462 12 19.1076 12C20.3748 12 21.5923 12.6178 22.446 13.6104C22.9108 13.0105 23.4724 12.4975 24.1076 12.0907C22.8357 10.7902 21.0667 10 19.1076 10C16.1694 10 13.5472 11.84 12.3688 14.4444C11.6663 14.1567 10.903 14 10.1076 14C6.79389 14 4.10759 16.6863 4.10759 20C4.10759 23.3137 6.79389 26 10.1076 26H22.1076C24.869 26 27.1076 23.7614 27.1076 21C27.1076 18.2386 24.869 16 22.1076 16C21.0029 16 20.1076 15.1046 20.1076 14C20.1076 12.8954 21.0029 12 22.1076 12C23.2122 12 24.1076 12.8954 24.1076 14C24.1076 15.1046 23.2122 16 22.1076 16Z"/>
</svg>